<mxfile host="Electron" agent="Mozilla/5.0 (Windows NT 10.0; Win64; x64) AppleWebKit/537.36 (KHTML, like Gecko) draw.io/24.7.17 Chrome/128.0.6613.36 Electron/32.0.1 Safari/537.36" version="24.7.17">
  <diagram name="Page-1" id="umWCZ60wJFw0KSC3doTm">
    <mxGraphModel dx="2196" dy="1640" grid="1" gridSize="10" guides="1" tooltips="1" connect="1" arrows="1" fold="1" page="1" pageScale="1" pageWidth="850" pageHeight="1100" math="0" shadow="0">
      <root>
        <mxCell id="0" />
        <mxCell id="1" parent="0" />
        <mxCell id="ZnOl3F_h2Q_FGXn7asKf-1" value="&lt;font style=&quot;font-size: 23px;&quot;&gt;Người chơi&lt;/font&gt;" style="shape=umlActor;verticalLabelPosition=bottom;verticalAlign=top;html=1;" vertex="1" parent="1">
          <mxGeometry x="150" y="835" width="80" height="160" as="geometry" />
        </mxCell>
        <mxCell id="ZnOl3F_h2Q_FGXn7asKf-3" value="" style="rounded=0;whiteSpace=wrap;html=1;" vertex="1" parent="1">
          <mxGeometry x="390" y="290" width="840" height="1250" as="geometry" />
        </mxCell>
        <mxCell id="ZnOl3F_h2Q_FGXn7asKf-4" value="&lt;font style=&quot;font-size: 23px;&quot;&gt;Di chuyển&lt;/font&gt;" style="ellipse;whiteSpace=wrap;html=1;" vertex="1" parent="1">
          <mxGeometry x="570" y="430" width="220" height="120" as="geometry" />
        </mxCell>
        <mxCell id="ZnOl3F_h2Q_FGXn7asKf-5" value="&lt;span style=&quot;font-size: 23px;&quot;&gt;Thay đổi góc nhìn&lt;/span&gt;" style="ellipse;whiteSpace=wrap;html=1;" vertex="1" parent="1">
          <mxGeometry x="790" y="840" width="230" height="130" as="geometry" />
        </mxCell>
        <mxCell id="ZnOl3F_h2Q_FGXn7asKf-6" value="&lt;font style=&quot;font-size: 23px;&quot;&gt;Lướt&lt;/font&gt;" style="ellipse;whiteSpace=wrap;html=1;" vertex="1" parent="1">
          <mxGeometry x="750" y="610" width="225" height="120" as="geometry" />
        </mxCell>
        <mxCell id="ZnOl3F_h2Q_FGXn7asKf-7" value="&lt;font style=&quot;font-size: 23px;&quot;&gt;Tấn công&lt;/font&gt;" style="ellipse;whiteSpace=wrap;html=1;" vertex="1" parent="1">
          <mxGeometry x="735" y="1080" width="230" height="110" as="geometry" />
        </mxCell>
        <mxCell id="ZnOl3F_h2Q_FGXn7asKf-8" value="&lt;span style=&quot;font-size: 23px;&quot;&gt;Thay đổi vũ khí&lt;/span&gt;" style="ellipse;whiteSpace=wrap;html=1;" vertex="1" parent="1">
          <mxGeometry x="580" y="1300" width="230" height="110" as="geometry" />
        </mxCell>
        <mxCell id="ZnOl3F_h2Q_FGXn7asKf-9" value="&lt;span style=&quot;font-size: 20px;&quot;&gt;Mystic forest&lt;/span&gt;" style="text;align=center;fontStyle=1;verticalAlign=middle;spacingLeft=3;spacingRight=3;strokeColor=none;rotatable=0;points=[[0,0.5],[1,0.5]];portConstraint=eastwest;html=1;" vertex="1" parent="1">
          <mxGeometry x="735" y="290" width="150" height="26" as="geometry" />
        </mxCell>
        <mxCell id="ZnOl3F_h2Q_FGXn7asKf-14" value="" style="endArrow=none;html=1;rounded=0;" edge="1" parent="1" source="ZnOl3F_h2Q_FGXn7asKf-1" target="ZnOl3F_h2Q_FGXn7asKf-4">
          <mxGeometry width="50" height="50" relative="1" as="geometry">
            <mxPoint x="260" y="990" as="sourcePoint" />
            <mxPoint x="310" y="940" as="targetPoint" />
          </mxGeometry>
        </mxCell>
        <mxCell id="ZnOl3F_h2Q_FGXn7asKf-15" value="" style="endArrow=none;html=1;rounded=0;" edge="1" parent="1" source="ZnOl3F_h2Q_FGXn7asKf-1" target="ZnOl3F_h2Q_FGXn7asKf-6">
          <mxGeometry width="50" height="50" relative="1" as="geometry">
            <mxPoint x="260" y="990" as="sourcePoint" />
            <mxPoint x="310" y="940" as="targetPoint" />
          </mxGeometry>
        </mxCell>
        <mxCell id="ZnOl3F_h2Q_FGXn7asKf-16" value="" style="endArrow=none;html=1;rounded=0;" edge="1" parent="1" source="ZnOl3F_h2Q_FGXn7asKf-1" target="ZnOl3F_h2Q_FGXn7asKf-5">
          <mxGeometry width="50" height="50" relative="1" as="geometry">
            <mxPoint x="260" y="990" as="sourcePoint" />
            <mxPoint x="310" y="940" as="targetPoint" />
          </mxGeometry>
        </mxCell>
        <mxCell id="ZnOl3F_h2Q_FGXn7asKf-17" value="" style="endArrow=none;html=1;rounded=0;" edge="1" parent="1" source="ZnOl3F_h2Q_FGXn7asKf-1" target="ZnOl3F_h2Q_FGXn7asKf-7">
          <mxGeometry width="50" height="50" relative="1" as="geometry">
            <mxPoint x="260" y="1070" as="sourcePoint" />
            <mxPoint x="310" y="1020" as="targetPoint" />
          </mxGeometry>
        </mxCell>
        <mxCell id="ZnOl3F_h2Q_FGXn7asKf-18" value="" style="endArrow=none;html=1;rounded=0;" edge="1" parent="1" source="ZnOl3F_h2Q_FGXn7asKf-1" target="ZnOl3F_h2Q_FGXn7asKf-8">
          <mxGeometry width="50" height="50" relative="1" as="geometry">
            <mxPoint x="260" y="1070" as="sourcePoint" />
            <mxPoint x="310" y="1020" as="targetPoint" />
          </mxGeometry>
        </mxCell>
      </root>
    </mxGraphModel>
  </diagram>
</mxfile>
